<?xml version="1.0" encoding="utf-8"?>
<!-- Generator: Adobe Illustrator 26.0.2, SVG Export Plug-In . SVG Version: 6.00 Build 0)  -->
<svg version="1.1" id="Layer_1" xmlns="http://www.w3.org/2000/svg" xmlns:xlink="http://www.w3.org/1999/xlink" x="0px" y="0px"
	 viewBox="0 0 512 512" style="enable-background:new 0 0 512 512;" xml:space="preserve">
<style type="text/css">
	.st0{fill:#FFFFFF;}
</style>
<path class="st0" d="M448,64H64C28.7,64,0,92.7,0,128v256c0,35.3,28.7,64,64,64h384c35.3,0,64-28.7,64-64V128
	C512,92.7,483.3,64,448,64z M160,368H80c-8.8,0-16-7.2-16-16v-16c0-8.8,7.2-16,16-16h80V368z M288,352c0,8.8-7.2,16-16,16h-80v-48
	h80c8.8,0,16,7.2,16,16V352z M448,224c0,17.7-14.3,32-32,32H96c-17.7,0-32-14.3-32-32v-64c0-17.7,14.3-32,32-32h320
	c17.7,0,32,14.3,32,32V224z"/>
</svg>
